<svg width="22" height="21" viewBox="0 0 22 21" fill="none" xmlns="http://www.w3.org/2000/svg">
<path d="M9.70952 2.82267V0H3.01868V2.82267H0V20.8853H22V2.82267H9.70952ZM3.67215 0.712875H9.05605V2.82267H3.67215V0.712875ZM21.3465 8.56561H16.6042V9.27849H21.3465V20.1725H0.653469V9.27849H3.6847C3.31938 10.0508 3.11287 10.9266 3.11287 11.854C3.11287 14.9614 5.43031 17.4896 8.27883 17.4896C11.1274 17.4896 13.4448 14.9614 13.4448 11.854C13.4448 10.9266 13.2382 10.0509 12.873 9.27849H15.7329V8.56561H12.4716C11.5327 7.14502 10.0032 6.21839 8.27883 6.21839C6.55445 6.21839 5.02498 7.14502 4.08611 8.56561H0.653469V3.53555H21.3466L21.3465 8.56561ZM3.76634 11.854C3.76634 9.13959 5.79064 6.93127 8.27883 6.93127C10.767 6.93127 12.7913 9.13959 12.7913 11.854C12.7913 14.5684 10.767 16.7767 8.27883 16.7767C5.79064 16.7767 3.76634 14.5684 3.76634 11.854Z" fill="black"/>
<path d="M14.4467 4.75321V7.34793H19.4125V4.75321H14.4467ZM18.7591 6.63506H15.1001V5.46609H18.7591V6.63506Z" fill="black"/>
<path d="M8.27884 7.58137C6.11923 7.58137 4.36224 9.49804 4.36224 11.854C4.36224 14.2099 6.11923 16.1266 8.27884 16.1266C10.4384 16.1266 12.1954 14.2099 12.1954 11.854C12.1954 9.49804 10.4384 7.58137 8.27884 7.58137ZM8.27884 15.4137C6.47952 15.4137 5.01571 13.8168 5.01571 11.854C5.01571 9.89113 6.47957 8.29424 8.27884 8.29424C10.0781 8.29424 11.5419 9.89118 11.5419 11.854C11.5419 13.8169 10.0781 15.4137 8.27884 15.4137Z" fill="black"/>
<path d="M5.66913 11.854H6.32259C6.32259 10.6773 7.20014 9.71999 8.27879 9.71999V9.00712C6.83981 9.00712 5.66913 10.2842 5.66913 11.854Z" fill="black"/>
<path d="M9.70952 2.82267V0H3.01868V2.82267H0V20.8853H22V2.82267H9.70952ZM3.67215 0.712875H9.05605V2.82267H3.67215V0.712875ZM21.3465 8.56561H16.6042V9.27849H21.3465V20.1725H0.653469V9.27849H3.6847C3.31938 10.0508 3.11287 10.9266 3.11287 11.854C3.11287 14.9614 5.43031 17.4896 8.27883 17.4896C11.1274 17.4896 13.4448 14.9614 13.4448 11.854C13.4448 10.9266 13.2382 10.0509 12.873 9.27849H15.7329V8.56561H12.4716C11.5327 7.14502 10.0032 6.21839 8.27883 6.21839C6.55445 6.21839 5.02498 7.14502 4.08611 8.56561H0.653469V3.53555H21.3466L21.3465 8.56561ZM3.76634 11.854C3.76634 9.13959 5.79064 6.93127 8.27883 6.93127C10.767 6.93127 12.7913 9.13959 12.7913 11.854C12.7913 14.5684 10.767 16.7767 8.27883 16.7767C5.79064 16.7767 3.76634 14.5684 3.76634 11.854Z" fill="black"/>
<path d="M14.4467 4.75321V7.34793H19.4125V4.75321H14.4467ZM18.7591 6.63506H15.1001V5.46609H18.7591V6.63506Z" fill="black"/>
<path d="M8.27884 7.58137C6.11923 7.58137 4.36224 9.49804 4.36224 11.854C4.36224 14.2099 6.11923 16.1266 8.27884 16.1266C10.4384 16.1266 12.1954 14.2099 12.1954 11.854C12.1954 9.49804 10.4384 7.58137 8.27884 7.58137ZM8.27884 15.4137C6.47952 15.4137 5.01571 13.8168 5.01571 11.854C5.01571 9.89113 6.47957 8.29424 8.27884 8.29424C10.0781 8.29424 11.5419 9.89118 11.5419 11.854C11.5419 13.8169 10.0781 15.4137 8.27884 15.4137Z" fill="black"/>
<path d="M5.66913 11.854H6.32259C6.32259 10.6773 7.20014 9.71999 8.27879 9.71999V9.00712C6.83981 9.00712 5.66913 10.2842 5.66913 11.854Z" fill="black"/>
</svg>
