<svg width="22" height="24" viewBox="0 0 22 24" fill="none" xmlns="http://www.w3.org/2000/svg">
<path d="M9.70952 4.38001V1.55734H3.01868V4.38001H0V10.123V22.4427H22V10.123V4.38001H9.70952ZM3.67215 2.27022H9.05605V4.38001H3.67215V2.27022ZM21.3465 10.123H16.6042V10.8358H21.3465V21.7298H0.653469V10.8358H3.6847C3.31938 11.6082 3.11287 12.484 3.11287 13.4113C3.11287 16.5188 5.4303 19.0469 8.27883 19.0469C11.1274 19.0469 13.4448 16.5188 13.4448 13.4113C13.4448 12.484 13.2382 11.6082 12.873 10.8358H15.7329V10.123H12.4716C11.5327 8.70236 10.0032 7.77573 8.27883 7.77573C6.55445 7.77573 5.02498 8.70236 4.08611 10.123H0.653469V5.09289H3.01873H9.70956H21.3466V10.123H21.3465ZM3.76634 13.4113C3.76634 10.6969 5.79064 8.48861 8.27883 8.48861C10.767 8.48861 12.7913 10.6969 12.7913 13.4113C12.7913 16.1257 10.767 18.334 8.27883 18.334C5.79064 18.334 3.76634 16.1257 3.76634 13.4113Z" fill="#764701"/>
<path d="M14.4467 6.31055V8.90527H19.4126V6.31055H14.4467ZM18.7591 8.19239H15.1001V7.02342H18.7591V8.19239Z" fill="#764701"/>
<path d="M8.27885 9.1387C6.11924 9.1387 4.36224 11.0554 4.36224 13.4113C4.36224 15.7672 6.11924 17.6839 8.27885 17.6839C10.4385 17.6839 12.1954 15.7672 12.1954 13.4113C12.1954 11.0554 10.4384 9.1387 8.27885 9.1387ZM8.27885 16.971C6.47953 16.971 5.01571 15.3741 5.01571 13.4113C5.01571 11.4485 6.47957 9.85158 8.27885 9.85158C10.0781 9.85158 11.5419 11.4485 11.5419 13.4113C11.5419 15.3742 10.0781 16.971 8.27885 16.971Z" fill="#764701"/>
<path d="M5.66913 13.4113H6.3226C6.3226 12.2346 7.20015 11.2773 8.27879 11.2773V10.5645C6.83981 10.5645 5.66913 11.8415 5.66913 13.4113Z" fill="#764701"/>
</svg>
